<?xml version="1.0" encoding="UTF-8"?>
<svg xmlns="http://www.w3.org/2000/svg" viewBox="0 0 709.72 497.03">
  <defs>
    <style>
      .cls-1 {
        fill: none;
        stroke: #f6ae2a;
        stroke-width: 4px;
      }

      .cls-1, .cls-2, .cls-3 {
        stroke-miterlimit: 10;
      }

      .cls-4, .cls-2, .cls-3 {
        fill: #fff;
      }

      .cls-5 {
        fill: #f6ae2a;
      }

      .cls-2 {
        stroke-width: 10px;
      }

      .cls-2, .cls-3 {
        stroke: #231f20;
      }

      .cls-3 {
        stroke-width: 13px;
      }

      .cls-6 {
        fill: #231f20;
      }
    </style>
  </defs>
  <g id="Background">
    <rect class="cls-4" x="120.78" y="113.5" width="254.3" height="270.38"/>
  </g>
  <g id="LionCirkle">
    <g>
      <path class="cls-3" d="M251.68,6.5C118.54,6.5,10.61,114.43,10.61,247.57s107.93,241.07,241.07,241.07,241.07-107.93,241.07-241.07S384.81,6.5,251.68,6.5Zm0,439.53c-109.61,0-198.47-88.86-198.47-198.47S142.07,49.1,251.68,49.1s198.47,88.86,198.47,198.47-88.86,198.47-198.47,198.47Z"/>
      <circle class="cls-1" cx="251.68" cy="247.57" r="236.05"/>
      <path class="cls-6" d="M248.18,49.1c-109.61,0-198.47,88.86-198.47,198.47s88.86,198.47,198.47,198.47,198.47-88.86,198.47-198.47S357.79,49.1,248.18,49.1Zm108.78,202.13l-12.94-3.74c5.79,66.72-29.62,82.04-29.62,82.04l-5.11-12.6c-27.91,42.21-58.42,41.53-58.42,41.53-45.14-10.55-58.69-41.53-58.69-41.53l-4.43,13.28c-48.34-41.87-23.49-85.45-23.49-85.45l-17.7,6.13c-8.51-74.55,48-83.4,48-83.4l-20.77-5.79c23.83-27.57,77.07-8.51,77.07-8.51,68.56-18.38,79.53,9.87,79.53,9.87-21.11-1.36-21.11,3.06-21.11,3.06,57.87,18.04,47.66,85.11,47.66,85.11Z"/>
    </g>
    <g>
      <g>
        <path class="cls-6" d="M229.12,299.18l1.79,12.51h41.62l1.02-12.51h12.26s17.36-12.26,5.87-39.06l22.21-19.66s4.52-63.32-62.59-47.74c0,0-65.32-18.13-61.75,49.02l17.36,18.64,3.06,4.09s-10.72,37.53,17.36,34.98"/>
        <g>
          <path class="cls-5" d="M228.95,300.18v10.38s4.35,8.85,22.26,1.53l5.65,.17s8.34,6.13,16.68-1.19v-10.89l-22.3-10.38"/>
          <g>
            <rect class="cls-5" x="247.61" y="285.5" width="6.89" height="7.4"/>
            <polygon class="cls-5" points="247.76 285.5 254.22 285.5 268.18 272.57 268.18 270.1 266.39 268.57 235.84 268.57 234.31 270.18 234.31 271.89 247.76 285.5"/>
          </g>
          <polygon class="cls-5" points="206.76 259.46 210.27 264.31 230.56 244.46 230.56 240.57 212.44 223.91 210.59 223.91 208.8 225.76 208.54 227.16 207.14 229.14 207.01 242.42 208.86 244.11 212.82 244.11 213.2 240.82 213.2 237.57 212.82 232.59 214.86 232.59 223.99 241.72 223.99 242.93 206.76 259.46"/>
          <g>
            <polygon class="cls-5" points="294.98 255.2 291.47 260.06 271.18 240.2 271.18 236.31 289.3 219.65 291.15 219.65 292.94 221.5 293.2 222.91 294.6 224.89 294.73 238.16 292.88 239.85 288.92 239.85 288.54 236.57 288.54 233.31 288.92 228.33 286.88 228.33 277.75 237.46 277.75 238.67 294.98 255.2"/>
            <polyline class="cls-5" points="291.47 260.06 291.67 260.11 296.03 256.26 294.98 255.2"/>
          </g>
        </g>
      </g>
      <polygon class="cls-6" points="244.99 273.72 257.5 273.72 250.86 280.35 244.99 273.72"/>
    </g>
  </g>
  <g id="Rectangle">
    <rect class="cls-2" x="5" y="446.03" width="499" height="46"/>
  </g>
</svg>